<svg width="14" height="14" viewBox="0 0 14 14" fill="none" xmlns="http://www.w3.org/2000/svg">
<path fill-rule="evenodd" clip-rule="evenodd" d="M7 0.75C7.34518 0.75 7.625 1.02982 7.625 1.375V6.375H12.625C12.9702 6.375 13.25 6.65482 13.25 7C13.25 7.34518 12.9702 7.625 12.625 7.625H7.625V12.625C7.625 12.9702 7.34518 13.25 7 13.25C6.65482 13.25 6.375 12.9702 6.375 12.625V7.625H1.375C1.02982 7.625 0.75 7.34518 0.75 7C0.75 6.65482 1.02982 6.375 1.375 6.375H6.375V1.375C6.375 1.02982 6.65482 0.75 7 0.75Z" fill="#219653"/>
</svg>
