<svg width="20" height="20" viewBox="0 0 20 20" fill="none" xmlns="http://www.w3.org/2000/svg">
<path fill-rule="evenodd" clip-rule="evenodd" d="M16.2904 3.7095C16.3486 3.76755 16.3948 3.83652 16.4263 3.91245C16.4578 3.98839 16.474 4.06979 16.474 4.152C16.474 4.23421 16.4578 4.31561 16.4263 4.39154C16.3948 4.46747 16.3486 4.53644 16.2904 4.5945L4.59411 16.2908C4.47675 16.4081 4.31758 16.4741 4.15161 16.4741C3.98564 16.4741 3.82647 16.4081 3.70911 16.2908C3.59175 16.1734 3.52582 16.0142 3.52582 15.8483C3.52582 15.6823 3.59175 15.5231 3.70911 15.4058L15.4054 3.7095C15.4634 3.65129 15.5324 3.60511 15.6083 3.57361C15.6843 3.5421 15.7657 3.52588 15.8479 3.52588C15.9301 3.52588 16.0115 3.5421 16.0874 3.57361C16.1634 3.60511 16.2323 3.65129 16.2904 3.7095Z" fill="#EB5757"/>
<path fill-rule="evenodd" clip-rule="evenodd" d="M3.70955 3.7095C3.65135 3.76755 3.60517 3.83652 3.57366 3.91245C3.54216 3.98839 3.52594 4.06979 3.52594 4.152C3.52594 4.23421 3.54216 4.31561 3.57366 4.39154C3.60517 4.46747 3.65135 4.53644 3.70955 4.5945L15.4058 16.2908C15.5232 16.4081 15.6824 16.4741 15.8483 16.4741C16.0143 16.4741 16.1735 16.4081 16.2908 16.2908C16.4082 16.1734 16.4741 16.0142 16.4741 15.8483C16.4741 15.6823 16.4082 15.5231 16.2908 15.4058L4.59455 3.7095C4.5365 3.65129 4.46753 3.60511 4.3916 3.57361C4.31567 3.5421 4.23426 3.52588 4.15205 3.52588C4.06985 3.52588 3.98844 3.5421 3.91251 3.57361C3.83658 3.60511 3.76761 3.65129 3.70955 3.7095Z" fill="#EB5757"/>
</svg>
