<svg width="23" height="24" viewBox="0 0 23 24" fill="none" xmlns="http://www.w3.org/2000/svg">
<path fill-rule="evenodd" clip-rule="evenodd" d="M4.33185 2.22029C5.88851 1.18016 7.71863 0.625 9.5908 0.625H9.59086C12.1013 0.62516 14.5089 1.6225 16.284 3.39765C18.0592 5.17279 19.0565 7.58037 19.0567 10.0908V10.0909C19.0567 11.963 18.5015 13.7932 17.4614 15.3498C17.2788 15.623 17.0828 15.8856 16.8742 16.1369L22.6187 21.8813C22.9604 22.223 22.9604 22.777 22.6187 23.1187C22.277 23.4604 21.7229 23.4604 21.3812 23.1187L15.6368 17.3743C14.9107 17.977 14.0946 18.4711 13.2132 18.8362C11.4836 19.5526 9.5803 19.7401 7.74411 19.3748C5.90791 19.0096 4.22125 18.1081 2.89743 16.7842C1.57361 15.4604 0.672069 13.7738 0.306827 11.9376C-0.0584152 10.1014 0.12904 8.19809 0.845489 6.46843C1.56194 4.73877 2.7752 3.26041 4.33185 2.22029ZM9.59075 2.375C8.06471 2.37501 6.57295 2.82754 5.3041 3.67536C4.03523 4.52319 3.04627 5.72824 2.46228 7.13813C1.87828 8.54802 1.72548 10.0994 2.0232 11.5961C2.32092 13.0929 3.05578 14.4677 4.13487 15.5468C5.21395 16.6259 6.58878 17.3607 8.08551 17.6585C9.58224 17.9562 11.1336 17.8034 12.5435 17.2194C13.9534 16.6354 15.1585 15.6464 16.0063 14.3776C16.8541 13.1087 17.3067 11.6169 17.3067 10.0909M9.5908 2.375C11.6371 2.37515 13.5996 3.18811 15.0466 4.63508C16.4936 6.08206 17.3065 8.04453 17.3067 10.0909" fill="white"/>
</svg>
